<svg version="1.1" xmlns="http://www.w3.org/2000/svg" xmlns:xlink="http://www.w3.org/1999/xlink" width="590" height="441" viewBox="0,0,590,441"><g transform="translate(40.5,27.5)"><g data-paper-data="{&quot;isPaintingLayer&quot;:true}" fill-rule="nonzero" stroke="none" stroke-width="0" stroke-linecap="butt" stroke-linejoin="miter" stroke-miterlimit="10" stroke-dasharray="" stroke-dashoffset="0" style="mix-blend-mode: normal"><path d="M-40.5,413.5v-441h590v441z" fill="#ffcad7"/><path d="M70.5,323c0,11.87412 -9.62588,21.5 -21.5,21.5c-11.87412,0 -21.5,-9.62588 -21.5,-21.5c0,-11.87412 9.62588,-21.5 21.5,-21.5c11.87412,0 21.5,9.62588 21.5,21.5z" fill="#f6ffa7"/><path d="M32.5,265.5c0,6.62742 -4.92487,12 -11,12c-6.07513,0 -11,-5.37258 -11,-12c0,-6.62742 4.92487,-12 11,-12c6.07513,0 11,5.37258 11,12z" fill="#f6ffa7"/><path d="M96.5,289.5c0,6.07513 -5.14873,11 -11.5,11c-6.35127,0 -11.5,-4.92487 -11.5,-11c0,-6.07513 5.14873,-11 11.5,-11c6.35127,0 11.5,4.92487 11.5,11z" fill="#f6ffa7"/><path d="M193.5,259.5c0,4.97056 -4.25329,9 -9.5,9c-5.24671,0 -9.5,-4.02944 -9.5,-9c0,-4.97056 4.25329,-9 9.5,-9c5.24671,0 9.5,4.02944 9.5,9z" fill="#f6ffa7"/><path d="M61.5,210.5c0,4.41828 -3.80558,8 -8.5,8c-4.69442,0 -8.5,-3.58172 -8.5,-8c0,-4.41828 3.80558,-8 8.5,-8c4.69442,0 8.5,3.58172 8.5,8z" fill="#f6ffa7"/><path d="M116.5,101.5c0,4.41828 -3.58172,8 -8,8c-4.41828,0 -8,-3.58172 -8,-8c0,-4.41828 3.58172,-8 8,-8c4.41828,0 8,3.58172 8,8z" fill="#f6ffa7"/><path d="M263.5,73c0,13.53098 -10.52131,24.5 -23.5,24.5c-12.97869,0 -23.5,-10.96902 -23.5,-24.5c0,-13.53098 10.52131,-24.5 23.5,-24.5c12.97869,0 23.5,10.96902 23.5,24.5z" fill="#f6ffa7"/><path d="M293.5,102.5c0,6.62742 -4.92487,12 -11,12c-6.07513,0 -11,-5.37258 -11,-12c0,-6.62742 4.92487,-12 11,-12c6.07513,0 11,5.37258 11,12z" fill="#f6ffa7"/><path d="M312.5,57c0,6.35127 -4.25329,11.5 -9.5,11.5c-5.24671,0 -9.5,-5.14873 -9.5,-11.5c0,-6.35127 4.25329,-11.5 9.5,-11.5c5.24671,0 9.5,5.14873 9.5,11.5z" fill="#f6ffa7"/><path d="M355.5,121.5c0,4.97056 -3.35786,9 -7.5,9c-4.14214,0 -7.5,-4.02944 -7.5,-9c0,-4.97056 3.35786,-9 7.5,-9c4.14214,0 7.5,4.02944 7.5,9z" fill="#f6ffa7"/><path d="M388.5,105c0,3.58985 -2.91015,6.5 -6.5,6.5c-3.58985,0 -6.5,-2.91015 -6.5,-6.5c0,-3.58985 2.91015,-6.5 6.5,-6.5c3.58985,0 6.5,2.91015 6.5,6.5z" fill="#f6ffa7"/><path d="M425.5,140c0,4.14214 -3.13401,7.5 -7,7.5c-3.86599,0 -7,-3.35786 -7,-7.5c0,-4.14214 3.13401,-7.5 7,-7.5c3.86599,0 7,3.35786 7,7.5z" fill="#f6ffa7"/><path d="M373.5,162.5c0,4.41828 -3.35786,8 -7.5,8c-4.14214,0 -7.5,-3.58172 -7.5,-8c0,-4.41828 3.35786,-8 7.5,-8c4.14214,0 7.5,3.58172 7.5,8z" fill="#f6ffa7"/><path d="M412.5,174c0,4.14214 -3.35786,7.5 -7.5,7.5c-4.14214,0 -7.5,-3.35786 -7.5,-7.5c0,-4.14214 3.35786,-7.5 7.5,-7.5c4.14214,0 7.5,3.35786 7.5,7.5z" fill="#f6ffa7"/><path d="M416.5,245c0,5.24671 -3.35786,9.5 -7.5,9.5c-4.14214,0 -7.5,-4.25329 -7.5,-9.5c0,-5.24671 3.35786,-9.5 7.5,-9.5c4.14214,0 7.5,4.25329 7.5,9.5z" fill="#f6ffa7"/><path d="M452.5,305c0,4.69442 -3.35786,8.5 -7.5,8.5c-4.14214,0 -7.5,-3.80558 -7.5,-8.5c0,-4.69442 3.35786,-8.5 7.5,-8.5c4.14214,0 7.5,3.80558 7.5,8.5z" fill="#f6ffa7"/></g></g></svg>